# xmcd
#
# Track frame offsets: 
#        183
#        17383
#        47733
#        80465
#
# Disc length: 1501 seconds
#
# Revision: 4
# Processed by: cddbd v1.5.2PL0 Copyright (c) Steve Scherf et al.
# Submitted via: ExactAudioCopyFreeDBPlugin 1.0
#
DISCID=2105db04
DTITLE=Carroll, Dina - The perfect year - Here
DYEAR=1993
DGENRE=Soul
TTITLE0=The perfect year (Radio mix)
TTITLE1=Here (West End mix)
TTITLE2=Here (Nigel Lowis mix)
TTITLE3=Ain't no man (Brothers In Rhythm remix)
EXTD=
EXTT0=
EXTT1=
EXTT2=
EXTT3=
PLAYORDER=
